  http://www.scenespeeds.com/

  |  | |  | |  | 
  |/\| |/\| |/\|,
  ~  ~ ~  ~ ~  ~~
                  
   _, __,  _, ___,
  / ` |_) /_\ ` / 
  \ , | \ | |  /  
   ~  ~ ~ ~ ~ ~~~ 
                  
 , _    ___  _, __,
 \ |     |  / \ |_)
  \| ~~  |  \ / | \
   )     ~   ~  ~ ~
  ~'               
  __, __, _, _ ___ 
  |_) |_  |\ |  |  
  | \ |   | \|  | ,
  ~ ~ ~~~ ~  ~  ~ ~
                   
     _,  _, _, _
    / ` / \ |\/|
    \ , \ / |  |
     ~   ~  ~  ~


Encoded By .......:UnKnOwN
Runtime ..........:1:28
IMDb URL .........:http://www.imdb.com/title/tt1712159/
Language .........:English
File Size ........:890mb
Release Date ......... 2011
Source ......... A thousand thank yous madam(:
File Type ......... Single AVI
PS3 Compatible ....... Go For It
Genre ......... Horror/Thriller

Video

ID : 0
Format : MPEG-4 Visual
Format profile : Advanced Simple@L5
Format settings, BVOP : Yes
Format settings, QPel : No
Format settings, GMC : No warppoints
Format settings, Matrix : Custom
Codec ID : XVID
Codec ID/Hint : XviD
Duration : 1h 28mn
Bit rate : 1381Kbps
Width : 720ixels
Height : 304pixels
Display aspect ratio : 2:35
Frame rate : 23.997fps
Color space : YUV
Chroma subsampling : 4:2:0
Bit depth : 8 bits
Scan type : Progressive
Bits/(Pixel*Frame) : 0.234
Stream size : 892 MiB (86%)
Writing library : XviD 1.2.1 (UTC 2008-12-04)

Audio

ID : 1
Format : AC3
Format/Info : AUDIO CODING 3
Mode extension : CM (complete main)
Codec ID : 2000
Duration : 1h 28mn
Bit rate mode : Constant
Bit rate : 448kbps
Channel(s) : 6channels
Channel positions : Front: L C R, Side: L R, LFE
Sampling rate : 48.0 KHz
Bit depth : 16 bits
Stream size : 302 MiB
Alignment : Aligned on interleaves
Interleave, duration : 42 ms (1.00 video frame)
Interleave, preload duration : 512 ms



After his death of his wife and child, an author travels to Barcelona to
see his estranged brother and dying father, where he learns that his
life is plagued by events that occur on 11-11-11.

RELEASE INFO
Had to cut about 15 second of footage due to w/m about 25 minutes in
other then that excellent quality screener imo,also note this is not
the cheap ASYLUM knock off 11/11/11 this is the one that opens in
theaters next week sample included good movie. 